<svg id="Layer_1" data-name="Layer 1" xmlns="http://www.w3.org/2000/svg" viewBox="0 0 413.66 175.66"><defs><style>.cls-1,.cls-4{fill:#6eb8f2;}.cls-1,.cls-2{fill-rule:evenodd;}.cls-2,.cls-3{fill:#145794;}</style></defs><path class="cls-1" d="M287.49,111.76h0a5.55,5.55,0,0,1-2.86,4.94l-25.69,14.83-5.71,3.3-11.41,6.59-8.57,5a5.6,5.6,0,0,1-5.7,0l-8.57-5-8.56-4.94a5.71,5.71,0,1,1,5.71-9.89l2.85,1.65,11.42,6.59,11.42-6.59,11.41-6.59,25.69-14.83a5.72,5.72,0,0,1,8.57,4.94" transform="translate(-23.57 -29.77)"/><path class="cls-1" d="M193.29,126.59l-8.56-4.94-8.56-5a5.71,5.71,0,1,1,5.71-9.88l2.85,1.64,11.42,6.6L199,116.7a5.71,5.71,0,0,1,0,9.89h0a5.57,5.57,0,0,1-5.71,0" transform="translate(-23.57 -29.77)"/><path class="cls-1" d="M261.8,90.34l2.85-1.65,11.42-6.59,2.85-1.65a5.72,5.72,0,0,1,8.57,4.94h0a5.58,5.58,0,0,1-2.86,5l-8.56,4.94-8.56,4.94a5.71,5.71,0,1,1-5.71-9.88m-20,11.53,2.85-1.65a5.62,5.62,0,0,1,5.71,0h0a5.72,5.72,0,0,1,0,9.89l-8.56,5L233.25,120a5.55,5.55,0,0,1-5.7,0L219,115.06l-11.41-6.6-11.42-6.59-11.42-6.59-8.56-4.94a5.58,5.58,0,0,1-2.86-5h0a5.72,5.72,0,0,1,8.57-4.94l2.85,1.65,11.42,6.59,11.42,6.59L219,101.87l8.57,4.95a5.6,5.6,0,0,0,5.7,0Z" transform="translate(-23.57 -29.77)"/><path class="cls-2" d="M177.09,64.53l52,30.05a2.47,2.47,0,0,0,2.52,0l6.39-3.69a2.52,2.52,0,0,0,0-4.35l-38.13-22a2.52,2.52,0,0,1,0-4.36L229.14,43.3a2.47,2.47,0,0,1,2.52,0L238.05,47a2.52,2.52,0,0,1,0,4.35l-15.3,8.83a2.53,2.53,0,0,0,0,4.36l6.39,3.68a2.43,2.43,0,0,0,2.52,0L252,56.48a2.46,2.46,0,0,1,2.51,0l6.39,3.69a2.52,2.52,0,0,1,0,4.36l-15.29,8.83a2.51,2.51,0,0,0,0,4.35L252,81.4a2.46,2.46,0,0,0,2.51,0l29.22-16.87a2.52,2.52,0,0,0,0-4.36l-52-30a2.43,2.43,0,0,0-2.52,0l-52,30.05a2.52,2.52,0,0,0,0,4.36" transform="translate(-23.57 -29.77)"/><path class="cls-3" d="M129.74,177.73c.61,0,.91.29.91.87v3.76c0,.58-.3.87-.91.87H112.45a10.58,10.58,0,0,0-2.55.26,3.1,3.1,0,0,0-2.48,2.53,12.55,12.55,0,0,0-.23,2.59v.4h22.35a.77.77,0,0,1,.87.87V193a.77.77,0,0,1-.87.87H107.19v.67a12.55,12.55,0,0,0,.23,2.59,3.1,3.1,0,0,0,2.48,2.53,10.58,10.58,0,0,0,2.55.26h17.29c.61,0,.91.29.91.87v3.76c0,.58-.3.87-.91.87H112.33a20.19,20.19,0,0,1-5.1-.55,7.87,7.87,0,0,1-3.43-1.8,7.41,7.41,0,0,1-1.94-3.25,16.65,16.65,0,0,1-.61-4.85v-6.8a16.46,16.46,0,0,1,.61-4.83,7.39,7.39,0,0,1,1.94-3.23,8.11,8.11,0,0,1,3.43-1.82,19.66,19.66,0,0,1,5.1-.57Zm-59.83,0a13.66,13.66,0,0,1,1.58.08,3,3,0,0,1,1.11.34,3.69,3.69,0,0,1,.91.71,11.36,11.36,0,0,1,1,1.21l14.72,19.31a.56.56,0,0,0,.51.27h.36c.21,0,.32-.13.32-.39V178.6a.77.77,0,0,1,.87-.87h4.15a.77.77,0,0,1,.87.87v22.72a4.6,4.6,0,0,1-.87,3.26,3.7,3.7,0,0,1-2.69.85h-3.4a12.55,12.55,0,0,1-1.52-.08,3.24,3.24,0,0,1-1.09-.32,3.2,3.2,0,0,1-.93-.69,10.75,10.75,0,0,1-1-1.24L70,183.78a.69.69,0,0,0-.52-.27h-.35c-.21,0-.32.13-.32.39v20.66a.77.77,0,0,1-.87.87H63.78c-.61,0-.91-.29-.91-.87V181.85q0-2.41.87-3.27a3.7,3.7,0,0,1,2.69-.85ZM29.62,194.55a11.12,11.12,0,0,0,.26,2.59,3.58,3.58,0,0,0,.85,1.66,3.3,3.3,0,0,0,1.61.87,10.58,10.58,0,0,0,2.55.26H46.64a10.58,10.58,0,0,0,2.55-.26,3.3,3.3,0,0,0,1.61-.87,3.58,3.58,0,0,0,.85-1.66,11.18,11.18,0,0,0,.25-2.59v-5.94a11.18,11.18,0,0,0-.25-2.59,3.58,3.58,0,0,0-.85-1.66,3.3,3.3,0,0,0-1.61-.87,10.58,10.58,0,0,0-2.55-.26H34.89a10.58,10.58,0,0,0-2.55.26,3.3,3.3,0,0,0-1.61.87,3.58,3.58,0,0,0-.85,1.66,11.12,11.12,0,0,0-.26,2.59Zm17.26-16.82a19.93,19.93,0,0,1,5.12.57,8.13,8.13,0,0,1,3.45,1.82,7.16,7.16,0,0,1,1.91,3.23,16.83,16.83,0,0,1,.6,4.83V195a17,17,0,0,1-.6,4.85,7.18,7.18,0,0,1-1.91,3.25,7.89,7.89,0,0,1-3.45,1.8,20.46,20.46,0,0,1-5.12.55H34.65a20.19,20.19,0,0,1-5.1-.55,7.87,7.87,0,0,1-3.43-1.8,7.41,7.41,0,0,1-1.94-3.25,16.65,16.65,0,0,1-.61-4.85v-6.8a16.46,16.46,0,0,1,.61-4.83,7.39,7.39,0,0,1,1.94-3.23,8.11,8.11,0,0,1,3.43-1.82,19.66,19.66,0,0,1,5.1-.57Z" transform="translate(-23.57 -29.77)"/><path class="cls-4" d="M244.36,177.73a.77.77,0,0,1,.87.87v15.79a11.43,11.43,0,0,0,.25,2.63,3.63,3.63,0,0,0,.85,1.66,3.3,3.3,0,0,0,1.61.87,10.1,10.1,0,0,0,2.55.26h16a.77.77,0,0,1,.87.87v3.88a.77.77,0,0,1-.87.87H250.25a20.24,20.24,0,0,1-5.1-.55,7.87,7.87,0,0,1-3.43-1.8,7.3,7.3,0,0,1-1.93-3.25,16.63,16.63,0,0,1-.62-4.85V178.6c0-.58.31-.87.91-.87Zm-31.15,0a.77.77,0,0,1,.87.87v15.79a11.37,11.37,0,0,0,.26,2.63,3.53,3.53,0,0,0,.85,1.66,3.31,3.31,0,0,0,1.6.87,10.24,10.24,0,0,0,2.56.26h16a.77.77,0,0,1,.87.87v3.88a.77.77,0,0,1-.87.87H219.11a20.27,20.27,0,0,1-5.11-.55,7.89,7.89,0,0,1-3.42-1.8,7.41,7.41,0,0,1-1.94-3.25A16.65,16.65,0,0,1,208,195V178.6c0-.58.3-.87.91-.87Zm-38.66,0a.77.77,0,0,1,.87.87v15.79a11.37,11.37,0,0,0,.26,2.63,3.45,3.45,0,0,0,.85,1.66,3.31,3.31,0,0,0,1.6.87,10.15,10.15,0,0,0,2.55.26h11a10.1,10.1,0,0,0,2.55-.26,3.26,3.26,0,0,0,1.6-.87,3.34,3.34,0,0,0,.83-1.66,12.09,12.09,0,0,0,.24-2.63V178.6a.77.77,0,0,1,.87-.87h4.31a.77.77,0,0,1,.87.87V195a17.06,17.06,0,0,1-.59,4.85,7.28,7.28,0,0,1-1.92,3.25,7.8,7.8,0,0,1-3.44,1.8,20.49,20.49,0,0,1-5.13.55H180.45a20.27,20.27,0,0,1-5.11-.55,7.77,7.77,0,0,1-3.42-1.8,7.41,7.41,0,0,1-1.94-3.25,16.65,16.65,0,0,1-.61-4.85V178.6c0-.58.3-.87.91-.87Zm-9.93,0c.6,0,.91.29.91.87v3.76c0,.58-.31.87-.91.87H147.44a10.58,10.58,0,0,0-2.55.26,3.26,3.26,0,0,0-1.6.87,3.49,3.49,0,0,0-.85,1.66,11.12,11.12,0,0,0-.26,2.59v.79h22.24a.77.77,0,0,1,.87.88v3.12a.77.77,0,0,1-.87.87H142.18v10.29a.77.77,0,0,1-.87.87H137c-.61,0-.91-.29-.91-.87V188.18a16.46,16.46,0,0,1,.61-4.83,7.3,7.3,0,0,1,1.94-3.23,8,8,0,0,1,3.42-1.82,19.74,19.74,0,0,1,5.11-.57Z" transform="translate(-23.57 -29.77)"/><path class="cls-4" d="M411.82,177.73a.77.77,0,0,1,.87.87v10.53h5.58c.63,0,1.16,0,1.58-.06a3.93,3.93,0,0,0,1.11-.26,3.05,3.05,0,0,0,.87-.55,7.7,7.7,0,0,0,.83-.91l6.81-9.11a1.43,1.43,0,0,1,.39-.39,1.62,1.62,0,0,1,.75-.12h4.91c.34,0,.55.11.61.34a.66.66,0,0,1-.09.61l-7.68,9.93c-.45.61-.87,1.12-1.25,1.55a11.53,11.53,0,0,1-1.13,1.1,11.69,11.69,0,0,1,3,2.85l8.11,10.29a.82.82,0,0,1,.12.62c0,.27-.23.41-.63.41h-5.07a1.48,1.48,0,0,1-.71-.12,1.43,1.43,0,0,1-.39-.39l-7.29-9.42a4.16,4.16,0,0,0-1.7-1.41,7.52,7.52,0,0,0-2.73-.37h-6v10.84a.77.77,0,0,1-.87.87h-4.28c-.6,0-.91-.29-.91-.87v-26c0-.58.31-.87.91-.87Zm-10.29,0a.77.77,0,0,1,.87.87v3.88c0,.61-.29.91-.87.91H383.92a10.58,10.58,0,0,0-2.55.26,3.3,3.3,0,0,0-1.61.87,3.56,3.56,0,0,0-.85,1.64,11.19,11.19,0,0,0-.25,2.61v5.62a11.43,11.43,0,0,0,.25,2.63,3.53,3.53,0,0,0,.85,1.66,3.3,3.3,0,0,0,1.61.87,10.1,10.1,0,0,0,2.55.26h17.61a.77.77,0,0,1,.87.87v3.88a.77.77,0,0,1-.87.87H383.68a20.19,20.19,0,0,1-5.1-.55,7.87,7.87,0,0,1-3.43-1.8,7.41,7.41,0,0,1-1.94-3.25,17,17,0,0,1-.61-4.85v-6.8a16.81,16.81,0,0,1,.61-4.83,7.39,7.39,0,0,1,1.94-3.23,8.11,8.11,0,0,1,3.43-1.82,19.66,19.66,0,0,1,5.1-.57Zm-55.72,17.49h13.61l-6.29-11.59a.47.47,0,0,0-.43-.28h-.24a.48.48,0,0,0-.44.28Zm7.68-17.49a4.86,4.86,0,0,1,2.53.61,6.23,6.23,0,0,1,2,2.4l13.1,23.78a.85.85,0,0,1,.1.65c-.07.18-.26.26-.58.26h-5a.9.9,0,0,1-.91-.51l-2.81-5.11h-18.6l-2.73,5.11a1,1,0,0,1-.91.51h-5.15c-.34,0-.54-.08-.61-.26a.8.8,0,0,1,.1-.65l13-23.78a6.63,6.63,0,0,1,1.94-2.4,4,4,0,0,1,2.21-.61Zm-16.86,0c.61,0,.91.29.91.87v3.88a.8.8,0,0,1-.91.91H324.2v21.17a.77.77,0,0,1-.87.87H319a.77.77,0,0,1-.87-.87V183.39H305.72a.81.81,0,0,1-.91-.91V178.6c0-.58.31-.87.91-.87Zm-36.53,0a.77.77,0,0,1,.88.87v3.76a.77.77,0,0,1-.88.87H280.28a2,2,0,0,0-1.62.59,2.53,2.53,0,0,0-.48,1.63v1.34c0,1.48.69,2.22,2.06,2.22h14.84a7,7,0,0,1,5.18,1.76,6.87,6.87,0,0,1,1.74,5V199a6.45,6.45,0,0,1-1.7,4.67q-1.69,1.78-5.3,1.78H273.08c-.61,0-.91-.29-.91-.87V200.8c0-.58.3-.87.91-.87h20.77a2,2,0,0,0,1.62-.59,2.53,2.53,0,0,0,.48-1.63v-1.62c0-1.48-.69-2.21-2.06-2.21H279.05a7,7,0,0,1-5.18-1.77,6.86,6.86,0,0,1-1.74-5v-2.89a6.45,6.45,0,0,1,1.7-4.67q1.69-1.78,5.3-1.78Z" transform="translate(-23.57 -29.77)"/></svg>