<svg id="Layer_1" data-name="Layer 1" xmlns="http://www.w3.org/2000/svg" viewBox="0 0 325 33.14"><defs><style>.cls-1,.cls-2{fill:#fff;}.cls-1{fill-rule:evenodd;}</style></defs><path class="cls-1" d="M43.85,32.08h0a1.56,1.56,0,0,1-.8,1.39L35.8,37.66l-1.62.93L31,40.45l-2.42,1.4a1.6,1.6,0,0,1-1.61,0l-2.42-1.4-2.41-1.4a1.55,1.55,0,0,1-.81-1.39,1.58,1.58,0,0,1,.81-1.4,1.6,1.6,0,0,1,1.61,0l.8.47,3.23,1.86L31,36.73l3.22-1.86,7.26-4.19a1.55,1.55,0,0,1,1.61,0,1.58,1.58,0,0,1,.8,1.4" transform="translate(-11.62 -8.93)"/><path class="cls-1" d="M17.26,36.26l-2.42-1.39-2.41-1.4A1.61,1.61,0,0,1,14,30.68l.8.47L18.07,33l.8.46a1.58,1.58,0,0,1,.81,1.4,1.55,1.55,0,0,1-.81,1.39h0a1.55,1.55,0,0,1-1.61,0" transform="translate(-11.62 -8.93)"/><path class="cls-1" d="M36.6,26l.81-.47,3.22-1.86.81-.46a1.61,1.61,0,0,1,2.41,1.39h0a1.59,1.59,0,0,1-.8,1.4l-2.42,1.39-2.42,1.4a1.55,1.55,0,0,1-1.61,0,1.58,1.58,0,0,1-.8-1.4A1.56,1.56,0,0,1,36.6,26M31,29.28l.81-.46a1.55,1.55,0,0,1,1.61,0h0a1.62,1.62,0,0,1,0,2.79L31,33,28.54,34.4a1.55,1.55,0,0,1-1.61,0L24.51,33l-3.22-1.86-3.22-1.87-3.23-1.86L12.43,26a1.58,1.58,0,0,1-.81-1.4h0A1.62,1.62,0,0,1,14,23.24l.8.46,3.23,1.86,3.22,1.86,3.22,1.86,2.42,1.4a1.55,1.55,0,0,0,1.61,0Z" transform="translate(-11.62 -8.93)"/><path class="cls-1" d="M12.69,18.74l14.69,8.49a.69.69,0,0,0,.71,0l1.81-1.05a.71.71,0,0,0,0-1.22L19.13,18.74a.69.69,0,0,1-.35-.61.71.71,0,0,1,.35-.62l8.25-4.76a.69.69,0,0,1,.71,0l1.81,1a.72.72,0,0,1,0,1.23l-4.32,2.49a.7.7,0,0,0-.36.62.68.68,0,0,0,.36.61l1.8,1a.69.69,0,0,0,.71,0l5.74-3.31a.69.69,0,0,1,.71,0l1.8,1a.7.7,0,0,1,.36.62.68.68,0,0,1-.36.61L32,21.23a.71.71,0,0,0-.35.62.69.69,0,0,0,.35.61l1.81,1a.69.69,0,0,0,.71,0l8.25-4.76a.69.69,0,0,0,.35-.61.71.71,0,0,0-.35-.62L28.09,9a.69.69,0,0,0-.71,0L12.69,17.51a.7.7,0,0,0-.36.62.68.68,0,0,0,.36.61" transform="translate(-11.62 -8.93)"/><path class="cls-2" d="M131.86,16.28c.41,0,.61.19.61.58v2.5c0,.39-.2.58-.61.58H120.35a7.19,7.19,0,0,0-1.7.17,2.25,2.25,0,0,0-1.08.58A2.1,2.1,0,0,0,117,21.8a7.62,7.62,0,0,0-.16,1.72v.27h14.89a.51.51,0,0,1,.58.58v2.08a.51.51,0,0,1-.58.58H116.84v.45A7.62,7.62,0,0,0,117,29.2a2.1,2.1,0,0,0,.57,1.11,2.34,2.34,0,0,0,1.08.58,7.19,7.19,0,0,0,1.7.17h11.51c.41,0,.61.19.61.58v2.5c0,.39-.2.58-.61.58H120.27a13.28,13.28,0,0,1-3.4-.37,5.09,5.09,0,0,1-2.28-1.2A4.78,4.78,0,0,1,113.3,31a10.78,10.78,0,0,1-.41-3.22V23.23A10.71,10.71,0,0,1,113.3,20a4.8,4.8,0,0,1,1.29-2.15,5.3,5.3,0,0,1,2.28-1.21,12.81,12.81,0,0,1,3.4-.38ZM92,16.28a7.83,7.83,0,0,1,1,0,2.07,2.07,0,0,1,.74.22,2.62,2.62,0,0,1,.61.48,9.75,9.75,0,0,1,.66.8l9.8,12.86a.36.36,0,0,0,.34.18h.24c.14,0,.21-.08.21-.26V16.86a.51.51,0,0,1,.58-.58H109a.51.51,0,0,1,.57.58V32a3.07,3.07,0,0,1-.57,2.17,2.49,2.49,0,0,1-1.8.57H105a9.35,9.35,0,0,1-1,0A2.16,2.16,0,0,1,102.6,34a7.65,7.65,0,0,1-.7-.83L92.07,20.31a.43.43,0,0,0-.34-.19h-.24q-.21,0-.21.27V34.14a.51.51,0,0,1-.58.58H87.93c-.4,0-.6-.19-.6-.58V19a3,3,0,0,1,.58-2.18,2.45,2.45,0,0,1,1.79-.56ZM65.19,27.48a7.56,7.56,0,0,0,.17,1.72,2.43,2.43,0,0,0,.57,1.11,2.25,2.25,0,0,0,1.07.58,7.25,7.25,0,0,0,1.7.17h7.82a7.19,7.19,0,0,0,1.7-.17,2.25,2.25,0,0,0,1.07-.58,2.43,2.43,0,0,0,.57-1.11A7.56,7.56,0,0,0,80,27.48v-4a7.56,7.56,0,0,0-.17-1.72,2.43,2.43,0,0,0-.57-1.11,2.17,2.17,0,0,0-1.07-.58,7.19,7.19,0,0,0-1.7-.17H68.7a7.25,7.25,0,0,0-1.7.17,2.17,2.17,0,0,0-1.07.58,2.43,2.43,0,0,0-.57,1.11,7.56,7.56,0,0,0-.17,1.72Zm11.49-11.2a12.94,12.94,0,0,1,3.41.38,5.32,5.32,0,0,1,2.3,1.21A4.68,4.68,0,0,1,83.66,20a11.07,11.07,0,0,1,.4,3.21v4.54a11.14,11.14,0,0,1-.4,3.22,4.66,4.66,0,0,1-1.27,2.16,5.11,5.11,0,0,1-2.3,1.2,13.41,13.41,0,0,1-3.41.37H68.54a13.28,13.28,0,0,1-3.4-.37,5.09,5.09,0,0,1-2.28-1.2A4.78,4.78,0,0,1,61.57,31a11.11,11.11,0,0,1-.41-3.22V23.23A11,11,0,0,1,61.57,20a4.8,4.8,0,0,1,1.29-2.15,5.3,5.3,0,0,1,2.28-1.21,12.81,12.81,0,0,1,3.4-.38Z" transform="translate(-11.62 -8.93)"/><path class="cls-2" d="M208.18,16.28a.51.51,0,0,1,.58.58V27.37a7.13,7.13,0,0,0,.18,1.75,2.33,2.33,0,0,0,.56,1.11,2.3,2.3,0,0,0,1.07.58,7.25,7.25,0,0,0,1.7.17h10.67a.51.51,0,0,1,.58.58v2.58a.51.51,0,0,1-.58.58H212.11a13.33,13.33,0,0,1-3.4-.37,5.09,5.09,0,0,1-2.28-1.2A4.78,4.78,0,0,1,205.14,31a11.11,11.11,0,0,1-.41-3.22V16.86c0-.39.2-.58.61-.58Zm-20.73,0a.51.51,0,0,1,.58.58V27.37a7.18,7.18,0,0,0,.17,1.75,2.33,2.33,0,0,0,.56,1.11,2.3,2.3,0,0,0,1.07.58,7.31,7.31,0,0,0,1.7.17H202.2a.51.51,0,0,1,.58.58v2.58a.51.51,0,0,1-.58.58H191.37a13.33,13.33,0,0,1-3.4-.37,5.09,5.09,0,0,1-2.28-1.2A4.87,4.87,0,0,1,184.4,31a11.11,11.11,0,0,1-.41-3.22V16.86c0-.39.21-.58.61-.58Zm-25.75,0a.51.51,0,0,1,.58.58V27.37a7.72,7.72,0,0,0,.17,1.75,2.34,2.34,0,0,0,.57,1.11,2.25,2.25,0,0,0,1.07.58,7.19,7.19,0,0,0,1.7.17h7.29a7.19,7.19,0,0,0,1.7-.17,2,2,0,0,0,1.62-1.69,7.78,7.78,0,0,0,.16-1.75V16.86a.51.51,0,0,1,.58-.58H180a.51.51,0,0,1,.58.58V27.77A11.53,11.53,0,0,1,180.2,31a4.68,4.68,0,0,1-1.28,2.16,5.07,5.07,0,0,1-2.29,1.2,13.47,13.47,0,0,1-3.41.37h-7.59a13.28,13.28,0,0,1-3.4-.37,5.09,5.09,0,0,1-2.28-1.2A4.78,4.78,0,0,1,158.66,31a10.78,10.78,0,0,1-.41-3.22V16.86c0-.39.2-.58.6-.58Zm-6.61,0c.4,0,.6.19.6.58v2.5c0,.39-.2.58-.6.58H143.65a7.25,7.25,0,0,0-1.7.17,2.22,2.22,0,0,0-1.07.58,2.33,2.33,0,0,0-.56,1.11,7,7,0,0,0-.18,1.72v.53H155a.51.51,0,0,1,.58.58v2.08a.51.51,0,0,1-.58.58H140.14v6.85a.51.51,0,0,1-.57.58h-2.85c-.4,0-.61-.19-.61-.58V23.23a11,11,0,0,1,.41-3.21,4.8,4.8,0,0,1,1.29-2.15,5.3,5.3,0,0,1,2.28-1.21,12.86,12.86,0,0,1,3.4-.38Z" transform="translate(-11.62 -8.93)"/><path class="cls-2" d="M319.7,16.28a.51.51,0,0,1,.58.58v7H324c.43,0,.78,0,1.06,0a2.59,2.59,0,0,0,.74-.18,2.08,2.08,0,0,0,.58-.36,5.79,5.79,0,0,0,.55-.61l4.53-6.06a1.15,1.15,0,0,1,.27-.27,1.11,1.11,0,0,1,.5-.07h3.26c.23,0,.37.07.41.22a.46.46,0,0,1-.06.41l-5.12,6.61a10,10,0,0,1-.83,1,7.43,7.43,0,0,1-.75.74,7.64,7.64,0,0,1,2,1.89l5.4,6.86a.57.57,0,0,1,.08.4c0,.19-.16.28-.42.28h-3.38a.9.9,0,0,1-.47-.08.93.93,0,0,1-.27-.26l-4.84-6.27a2.88,2.88,0,0,0-1.14-.94,5.16,5.16,0,0,0-1.82-.25h-4v7.22a.51.51,0,0,1-.58.58h-2.85c-.4,0-.6-.19-.6-.58V16.86c0-.39.2-.58.6-.58Zm-6.85,0a.51.51,0,0,1,.58.58v2.58a.52.52,0,0,1-.58.6H301.12a7.31,7.31,0,0,0-1.7.17,2.23,2.23,0,0,0-1.07.59,2.31,2.31,0,0,0-.56,1.09,7,7,0,0,0-.17,1.74v3.74a7.18,7.18,0,0,0,.17,1.75,2.33,2.33,0,0,0,.56,1.11,2.3,2.3,0,0,0,1.07.58,7.31,7.31,0,0,0,1.7.17h11.73a.51.51,0,0,1,.58.58v2.58a.51.51,0,0,1-.58.58H301a13.33,13.33,0,0,1-3.4-.37,5.09,5.09,0,0,1-2.28-1.2A5,5,0,0,1,294,31a11.11,11.11,0,0,1-.41-3.22V23.23A11,11,0,0,1,294,20a5,5,0,0,1,1.29-2.15,5.3,5.3,0,0,1,2.28-1.21,12.86,12.86,0,0,1,3.4-.38ZM275.74,27.92h9.07l-4.19-7.72a.33.33,0,0,0-.29-.18h-.16a.33.33,0,0,0-.29.18Zm5.12-11.64a3.24,3.24,0,0,1,1.68.4,4.23,4.23,0,0,1,1.35,1.6l8.72,15.84a.55.55,0,0,1,.07.43c-.05.11-.18.17-.39.17H289a.61.61,0,0,1-.61-.34L286.47,31H274.08l-1.81,3.4a.64.64,0,0,1-.61.34h-3.43c-.22,0-.36-.06-.4-.17a.5.5,0,0,1,.06-.43l8.65-15.84a4.37,4.37,0,0,1,1.29-1.6,2.66,2.66,0,0,1,1.47-.4Zm-11.23,0c.41,0,.61.19.61.58v2.58a.53.53,0,0,1-.61.6h-8.27v14.1a.51.51,0,0,1-.58.58H257.9a.51.51,0,0,1-.57-.58V20h-8.28a.54.54,0,0,1-.61-.6V16.86c0-.39.21-.58.61-.58Zm-24.32,0a.51.51,0,0,1,.58.58v2.5a.51.51,0,0,1-.58.58h-13.2a1.32,1.32,0,0,0-1.08.39,1.65,1.65,0,0,0-.32,1.08v.9c0,1,.46,1.48,1.37,1.48H242A4.65,4.65,0,0,1,245.41,25a4.54,4.54,0,0,1,1.16,3.36v2.11a4.3,4.3,0,0,1-1.13,3.11,4.69,4.69,0,0,1-3.53,1.18h-14.6c-.4,0-.61-.19-.61-.58v-2.5c0-.39.21-.58.61-.58h13.83a1.32,1.32,0,0,0,1.09-.4,1.67,1.67,0,0,0,.31-1.08V28.5c0-1-.46-1.47-1.37-1.47h-9.88a4.61,4.61,0,0,1-3.45-1.18,4.54,4.54,0,0,1-1.16-3.36V20.57a4.34,4.34,0,0,1,1.13-3.11,4.69,4.69,0,0,1,3.53-1.18Z" transform="translate(-11.62 -8.93)"/></svg>