<svg xmlns="http://www.w3.org/2000/svg" viewBox="0 0 158.14 27">
    <defs>
        <style>.cls-1{fill:#00294a;}.cls-2{fill:#005396;}</style>
    </defs>
    <g id="Layer_2" data-name="Layer 2">
        <g id="Text">
            <path class="cls-1" d="M39.74,23.11a7,7,0,0,1-3.59-.91,6.06,6.06,0,0,1-2.4-2.92A13.66,13.66,0,0,1,32.89,14a13.66,13.66,0,0,1,.86-5.28,6.06,6.06,0,0,1,2.4-2.92,7.54,7.54,0,0,1,7.18,0,6,6,0,0,1,2.41,2.92A13.48,13.48,0,0,1,46.6,14a13.48,13.48,0,0,1-.86,5.28,6,6,0,0,1-2.41,2.92A7,7,0,0,1,39.74,23.11Zm0-2.49a3.46,3.46,0,0,0,2-.6,3.73,3.73,0,0,0,1.31-2,13.15,13.15,0,0,0,.47-3.92,13.8,13.8,0,0,0-.47-4A3.85,3.85,0,0,0,41.78,8a3.75,3.75,0,0,0-4.07,0,3.69,3.69,0,0,0-1.32,2,13.15,13.15,0,0,0-.47,3.92,13.8,13.8,0,0,0,.47,4A3.81,3.81,0,0,0,37.71,20,3.45,3.45,0,0,0,39.74,20.62Z"/>
            <path class="cls-1" d="M48.79,22.88V9.79h2.42l.22,1.41h.14A4.3,4.3,0,0,1,53,10a4.19,4.19,0,0,1,1.88-.42,4,4,0,0,1,1.84.42,3,3,0,0,1,1.3,1.4A6.09,6.09,0,0,1,58.53,14v8.87H55.64V14.22a2.15,2.15,0,0,0-.47-1.6,1.72,1.72,0,0,0-1.23-.43,2.93,2.93,0,0,0-.8.12,2.69,2.69,0,0,0-.8.39,2.54,2.54,0,0,0-.66.72v9.46Z"/>
            <path class="cls-1" d="M66.48,23.12a7.42,7.42,0,0,1-3.38-.68,4.18,4.18,0,0,1-2-2.19,10.17,10.17,0,0,1-.64-4,10,10,0,0,1,.61-3.77,4.56,4.56,0,0,1,1.75-2.22,5,5,0,0,1,2.72-.72,4.09,4.09,0,0,1,4.17,2.95,11.3,11.3,0,0,1,.55,3.85v.87H62.6V15.4H68l-.44.24a10.13,10.13,0,0,0-.24-2.51,2.17,2.17,0,0,0-.69-1.22,1.73,1.73,0,0,0-1.08-.35,1.87,1.87,0,0,0-1.12.35,2.26,2.26,0,0,0-.74,1.22,9.52,9.52,0,0,0-.26,2.51v1.24a6.31,6.31,0,0,0,.34,2.32,2.14,2.14,0,0,0,1.08,1.2,4.51,4.51,0,0,0,2,.36,8,8,0,0,0,1.37-.12,12,12,0,0,0,1.5-.33v2.35A13.26,13.26,0,0,1,68,23,11.46,11.46,0,0,1,66.48,23.12Z"/>
            <path class="cls-1" d="M72.39,22.88V5.12H82.72V7.69h-7.4V22.88Zm2.14-7.49V12.81h7v2.58Z"/>
            <path class="cls-1" d="M87.14,23.11a3.9,3.9,0,0,1-1.82-.42A3,3,0,0,1,84,21.3a6,6,0,0,1-.48-2.63V9.79h2.91v8.67a2.18,2.18,0,0,0,.46,1.61,1.65,1.65,0,0,0,1.18.45A2.78,2.78,0,0,0,89.65,20a2.35,2.35,0,0,0,.65-.71V9.79h2.9V22.88H90.78l-.22-1.39h-.14a4.42,4.42,0,0,1-1.5,1.22A4.14,4.14,0,0,1,87.14,23.11Z"/>
            <path class="cls-1" d="M95.79,22.88V3.49h2.89V22.88Z"/>
            <path class="cls-1" d="M101.27,22.88V3.49h2.9V22.88Z"/>
            <path class="cls-1" d="M110.37,23.11a12.39,12.39,0,0,1-2-.18,11.37,11.37,0,0,1-2-.49V19.93c.43.13.87.25,1.31.35s.89.18,1.35.24a12,12,0,0,0,1.33.08,3.83,3.83,0,0,0,2.46-.65,2.25,2.25,0,0,0,.8-1.85,2.19,2.19,0,0,0-.57-1.6A5.39,5.39,0,0,0,111,15.39L109.89,15a6.59,6.59,0,0,1-2.85-1.8A4.54,4.54,0,0,1,106,10.06a4.78,4.78,0,0,1,1.57-3.79,7,7,0,0,1,4.73-1.38,14.25,14.25,0,0,1,1.85.12,8.75,8.75,0,0,1,1.6.34V7.86a8.46,8.46,0,0,0-1.56-.35,12.78,12.78,0,0,0-1.64-.11,6.07,6.07,0,0,0-2.1.3,2.27,2.27,0,0,0-1.14.85,2.41,2.41,0,0,0-.35,1.3,2.13,2.13,0,0,0,.53,1.52,4.63,4.63,0,0,0,1.89,1l1.07.36a8.53,8.53,0,0,1,2.22,1.11,4.57,4.57,0,0,1,1.42,1.65,4.93,4.93,0,0,1,.5,2.32,5.25,5.25,0,0,1-.73,2.83,4.76,4.76,0,0,1-2.11,1.81A8,8,0,0,1,110.37,23.11Z"/>
            <path class="cls-1" d="M116.93,12.1V9.79H125V12.1Zm6.2,11A4.32,4.32,0,0,1,120,22.06a4.68,4.68,0,0,1-1.1-3.49V9.79l.51-4.67h2.39v13.1a2.8,2.8,0,0,0,.47,1.86,2,2,0,0,0,1.54.52,4,4,0,0,0,.58,0l.66-.09v2.41a8.89,8.89,0,0,1-.93.16A7.33,7.33,0,0,1,123.13,23.11Z"/>
            <path class="cls-1" d="M129.57,23.11a3.41,3.41,0,0,1-3.6-3.69,3.74,3.74,0,0,1,1.1-2.85,5.74,5.74,0,0,1,3.54-1.21l2.37-.23.39,1.76-2.46.22a2.47,2.47,0,0,0-1.58.6,1.86,1.86,0,0,0-.52,1.39,1.81,1.81,0,0,0,.47,1.36,1.73,1.73,0,0,0,1.25.44,2.68,2.68,0,0,0,1-.23,2.37,2.37,0,0,0,1-.86v-5.4a3.34,3.34,0,0,0-.27-1.48,1.52,1.52,0,0,0-.85-.76,4.39,4.39,0,0,0-1.53-.22,10.11,10.11,0,0,0-1.47.12,10.76,10.76,0,0,0-1.59.36V10.08a10.69,10.69,0,0,1,1.76-.37,14.85,14.85,0,0,1,1.83-.13,7.16,7.16,0,0,1,2.78.47,3.14,3.14,0,0,1,1.63,1.56,6.65,6.65,0,0,1,.53,2.93v8.34H133l-.22-1.4h-.14a3,3,0,0,1-1.29,1.24A3.89,3.89,0,0,1,129.57,23.11Z"/>
            <path class="cls-1" d="M142.82,23.12a5.94,5.94,0,0,1-3-.7A4.4,4.4,0,0,1,138,20.24a9.9,9.9,0,0,1-.64-3.89,9.09,9.09,0,0,1,.72-3.94,4.49,4.49,0,0,1,2.06-2.15,7.12,7.12,0,0,1,3.22-.68,11.07,11.07,0,0,1,1.15.06,7.93,7.93,0,0,1,1.12.18v2.42a4.9,4.9,0,0,0-.92-.15c-.31,0-.59-.05-.83-.05a4.42,4.42,0,0,0-2,.39,2.39,2.39,0,0,0-1.14,1.32,7,7,0,0,0-.38,2.54,8,8,0,0,0,.35,2.64,2.47,2.47,0,0,0,1,1.35,3.45,3.45,0,0,0,1.72.39,4.5,4.5,0,0,0,1-.11,9,9,0,0,0,1.14-.31v2.41a7.35,7.35,0,0,1-1.38.35A9.27,9.27,0,0,1,142.82,23.12Z"/>
            <path class="cls-1" d="M147.34,22.88V3.49h2.89V22.88ZM150,17.32V15h1.86v2.31Zm5,5.56-4.24-6.72,3.9-6.37h3.07l-4.1,6.75v-.85l4.52,7.19Z"/>
        </g>
        <g id="Icon">
            <rect class="cls-1" x="4.64" y="4.91" width="19.09" height="4.91"/>
            <rect class="cls-1" x="4.64" y="11.05" width="19.09" height="4.91"/>
            <rect class="cls-1" x="4.64" y="17.18" width="19.09" height="4.91"/>
            <polyline class="cls-2" points="0 0 0 27 12.27 27 12.27 24.55 3.68 24.55 2.46 24.55 2.46 2.46 12.27 2.46 12.27 0"/>
            <polyline class="cls-2" points="28.36 27 28.36 0 16.09 0 16.09 2.46 24.68 2.46 25.91 2.46 25.91 24.55 16.09 24.55 16.09 27"/>
        </g>
    </g>
</svg>