<svg id="Layer_1" data-name="Layer 1" xmlns="http://www.w3.org/2000/svg" viewBox="0 0 32.23 33.14"><defs><style>.cls-1{fill:#fff;fill-rule:evenodd;}</style></defs><path class="cls-1" d="M41.12,31.58h0A1.57,1.57,0,0,1,40.31,33l-7.25,4.19-1.61.93L28.22,40l-2.41,1.4a1.62,1.62,0,0,1-1.62,0L21.78,40l-2.42-1.39A1.61,1.61,0,1,1,21,35.76l.81.47L25,38.09l3.22-1.86,3.23-1.86,7.25-4.19a1.62,1.62,0,0,1,2.42,1.4" transform="translate(-8.88 -8.43)"/><path class="cls-1" d="M14.52,35.76l-2.41-1.39L9.69,33a1.57,1.57,0,0,1-.81-1.39,1.62,1.62,0,0,1,2.42-1.4l.81.47,3.22,1.86.81.46a1.59,1.59,0,0,1,.8,1.4,1.56,1.56,0,0,1-.8,1.39h0a1.57,1.57,0,0,1-1.62,0" transform="translate(-8.88 -8.43)"/><path class="cls-1" d="M33.86,25.53l.81-.47,3.22-1.86.81-.46a1.55,1.55,0,0,1,1.61,0,1.57,1.57,0,0,1,.81,1.39h0a1.58,1.58,0,0,1-.81,1.4l-2.42,1.4-2.41,1.39a1.61,1.61,0,0,1-1.62-2.79m-5.64,3.26.81-.47a1.58,1.58,0,0,1,1.61,0h0a1.61,1.61,0,0,1,0,2.79l-2.42,1.4L25.81,33.9a1.57,1.57,0,0,1-1.62,0l-2.41-1.39-3.23-1.86-3.22-1.86-3.22-1.86-2.42-1.4a1.58,1.58,0,0,1-.81-1.4h0a1.57,1.57,0,0,1,.81-1.39,1.55,1.55,0,0,1,1.61,0l.81.46,3.22,1.86,3.22,1.87,3.23,1.86,2.41,1.39a1.57,1.57,0,0,0,1.62,0Z" transform="translate(-8.88 -8.43)"/><path class="cls-1" d="M10,18.24l14.7,8.49a.68.68,0,0,0,.7,0l1.81-1a.71.71,0,0,0,.35-.62.69.69,0,0,0-.35-.61L16.4,18.24a.68.68,0,0,1-.36-.61A.7.7,0,0,1,16.4,17l8.25-4.76a.68.68,0,0,1,.7,0l1.81,1a.71.71,0,0,1,.35.62.69.69,0,0,1-.35.61L22.84,17a.71.71,0,0,0-.35.62.69.69,0,0,0,.35.61c.6.35,1.2.7,1.81,1a.68.68,0,0,0,.7,0L31.09,16a.69.69,0,0,1,.71,0l1.81,1a.71.71,0,0,1,.35.62.69.69,0,0,1-.35.61l-4.32,2.5a.7.7,0,0,0,0,1.22L31.09,23a.69.69,0,0,0,.71,0l8.25-4.77a.68.68,0,0,0,.36-.61.7.7,0,0,0-.36-.62L25.35,8.53a.68.68,0,0,0-.7,0L10,17a.7.7,0,0,0-.36.62.68.68,0,0,0,.36.61" transform="translate(-8.88 -8.43)"/></svg>