<svg xmlns="http://www.w3.org/2000/svg" viewBox="0 0 165.92 25">
    <defs>
        <style>.cls-1{fill:#00294a;}.cls-2{fill:#005396;}</style>
    </defs>
    <g id="Layer_2" data-name="Layer 2">
        <g id="Text">
            <path class="cls-1" d="M42.77,19.74a5.19,5.19,0,0,1-2.15-2,5.68,5.68,0,0,1-.75-2.91v-4.6a5.53,5.53,0,0,1,.74-2.89,5,5,0,0,1,2.14-2,7.82,7.82,0,0,1,6.51,0,5,5,0,0,1,2.13,2,5.53,5.53,0,0,1,.75,2.89v4.6a5.59,5.59,0,0,1-.76,2.91,5.11,5.11,0,0,1-2.14,2,7.63,7.63,0,0,1-6.47,0Zm7-1.54A4.41,4.41,0,0,0,51,14.83V10.25a4.36,4.36,0,0,0-1.3-3.34A5.22,5.22,0,0,0,46,5.67a5.26,5.26,0,0,0-3.74,1.24A4.39,4.39,0,0,0,41,10.25v4.58a4.45,4.45,0,0,0,1.29,3.37A5.22,5.22,0,0,0,46,19.45,5.18,5.18,0,0,0,49.74,18.2Z"/>
            <path class="cls-1" d="M55.44,10.14q0-1.08,1-1.08v1.52L56,11l0,.11a5.3,5.3,0,0,1,1.83-1.51,4.82,4.82,0,0,1,2.2-.56A4.1,4.1,0,0,1,63,10a3.54,3.54,0,0,1,1.06,2.72v6.6a1.13,1.13,0,0,1-.27.81,1,1,0,0,1-.75.29V12.71a2.66,2.66,0,0,0-.74-2A3.12,3.12,0,0,0,60.13,10a4.36,4.36,0,0,0-1.76.38,4,4,0,0,0-1.39,1,2,2,0,0,0-.53,1.29v6.69c0,.73-.33,1.1-1,1.1Z"/>
            <path class="cls-1" d="M68.33,19.39a3.58,3.58,0,0,1-1.18-2.8V13a3.57,3.57,0,0,1,.57-2,4,4,0,0,1,1.55-1.41,4.66,4.66,0,0,1,2.19-.52,4.76,4.76,0,0,1,2.2.52A4,4,0,0,1,75.22,11a3.63,3.63,0,0,1,.57,2v1.56a.47.47,0,0,1-.16.34.5.5,0,0,1-.34.17H68.16v1.56A2.69,2.69,0,0,0,69,18.74a3.51,3.51,0,0,0,2.43.77,3.78,3.78,0,0,0,2.45-.72,2.46,2.46,0,0,0,.89-2,.87.87,0,0,1,.54.3.83.83,0,0,1,.25.56A2,2,0,0,1,75,19a4.14,4.14,0,0,1-1.54,1,5.11,5.11,0,0,1-2,.4A4.54,4.54,0,0,1,68.33,19.39Zm6.45-5.31V13a2.72,2.72,0,0,0-.92-2.12,3.48,3.48,0,0,0-2.4-.83,3.42,3.42,0,0,0-2.39.83A2.71,2.71,0,0,0,68.16,13v1.1Z"/>
            <path class="cls-1" d="M78.76,5.41A.52.52,0,0,1,78.93,5a.54.54,0,0,1,.4-.17H89a1,1,0,0,1-.28.75,1.22,1.22,0,0,1-.84.26h-8v6h6.49c0,.69-.37,1-1.12,1H79.88v6.34a1.29,1.29,0,0,1-.29.89,1.1,1.1,0,0,1-.83.32Z"/>
            <path class="cls-1" d="M97.64,19.38q0,1.08-1,1.08V18.94L97,18.5l0-.11a5.81,5.81,0,0,1-1.8,1.51,4.64,4.64,0,0,1-2.16.56,4.12,4.12,0,0,1-2.93-1A3.61,3.61,0,0,1,89,16.65V10.16c0-.73.34-1.1,1-1.1v7.61a2.79,2.79,0,0,0,.8,2.11,3.11,3.11,0,0,0,2.22.75,4,4,0,0,0,1.73-.38,3.83,3.83,0,0,0,1.34-1,2,2,0,0,0,.51-1.29V10.16c0-.73.34-1.1,1-1.1Z"/>
            <path class="cls-1" d="M101.84,19.75a2.74,2.74,0,0,1-.68-2v-12a1.18,1.18,0,0,1,.26-.81,1,1,0,0,1,.75-.29V17.71a2.11,2.11,0,0,0,.37,1.41,1.65,1.65,0,0,0,1.28.41,2.23,2.23,0,0,0,.68-.11,2.48,2.48,0,0,0,.66-.28,1,1,0,0,1,.09.44.73.73,0,0,1-.43.61,1.89,1.89,0,0,1-1,.27A2.6,2.6,0,0,1,101.84,19.75Z"/>
            <path class="cls-1" d="M108.13,19.75a2.79,2.79,0,0,1-.68-2v-12a1.18,1.18,0,0,1,.26-.81,1,1,0,0,1,.75-.29V17.71a2.17,2.17,0,0,0,.37,1.41,1.65,1.65,0,0,0,1.28.41,2.19,2.19,0,0,0,.68-.11,2.48,2.48,0,0,0,.66-.28,1,1,0,0,1,.09.44.73.73,0,0,1-.43.61,1.87,1.87,0,0,1-1,.27A2.62,2.62,0,0,1,108.13,19.75Z"/>
            <path class="cls-1" d="M116.38,19.89a4.61,4.61,0,0,1-1.95-1.51,3.46,3.46,0,0,1-.65-2c0-.81.36-1.24,1.06-1.3A4.28,4.28,0,0,0,116,18.35a5.14,5.14,0,0,0,3.55,1,6.19,6.19,0,0,0,3.43-.83,2.65,2.65,0,0,0,1.25-2.31,2.48,2.48,0,0,0-.44-1.53,3.33,3.33,0,0,0-1.49-1,17.06,17.06,0,0,0-3-.78,9,9,0,0,1-4-1.54,3.36,3.36,0,0,1-1.22-2.73,3.39,3.39,0,0,1,1.48-2.91,6.68,6.68,0,0,1,4-1.07,7,7,0,0,1,2.65.49,4.81,4.81,0,0,1,2,1.34,2.93,2.93,0,0,1,.72,1.93c0,.8-.33,1.24-1,1.32a3.83,3.83,0,0,0-1.16-3.06,4.91,4.91,0,0,0-3.3-1,5.18,5.18,0,0,0-3,.79,2.45,2.45,0,0,0-1.1,2.1,2.68,2.68,0,0,0,.39,1.48,2.94,2.94,0,0,0,1.3,1,12.4,12.4,0,0,0,2.58.75,16.58,16.58,0,0,1,3.45,1,4.14,4.14,0,0,1,1.81,1.37,3.64,3.64,0,0,1,.55,2.05,3.59,3.59,0,0,1-1.58,3.08,7.34,7.34,0,0,1-4.3,1.12A7.69,7.69,0,0,1,116.38,19.89Z"/>
            <path class="cls-1" d="M129.07,19.75a2.79,2.79,0,0,1-.68-2v-7.5h-1.82a.94.94,0,0,1,.26-.72,1.09,1.09,0,0,1,.75-.25h.81V6.86a1.13,1.13,0,0,1,.27-.81,1,1,0,0,1,.74-.29v3.5h2.93a1,1,0,0,1-.26.7,1,1,0,0,1-.71.27h-2v7.48a2,2,0,0,0,.39,1.41,1.68,1.68,0,0,0,1.29.41,2.23,2.23,0,0,0,.68-.11,2.48,2.48,0,0,0,.66-.28.88.88,0,0,1,.09.44.75.75,0,0,1-.43.61,1.91,1.91,0,0,1-1,.27A2.65,2.65,0,0,1,129.07,19.75Z"/>
            <path class="cls-1" d="M135.55,19.46a3.35,3.35,0,0,1-1.17-2.68,3.39,3.39,0,0,1,1.15-2.69,4.64,4.64,0,0,1,3.16-1,4.41,4.41,0,0,1,3.67,1.71l.07,0-.4-.53V12.78a2.57,2.57,0,0,0-.79-2A3.26,3.26,0,0,0,139,10a3.56,3.56,0,0,0-3.56,2.18,1.34,1.34,0,0,1-.34-.45,1.13,1.13,0,0,1-.12-.48,1.43,1.43,0,0,1,.59-1,4.85,4.85,0,0,1,1.53-.85A5.6,5.6,0,0,1,139,9.06a4.23,4.23,0,0,1,3,1A3.52,3.52,0,0,1,143,12.8v6.56a1.18,1.18,0,0,1-.26.81,1,1,0,0,1-.75.29V19.27a2,2,0,0,0,.46-.57l-.06-.07a4.77,4.77,0,0,1-3.74,1.83A4.66,4.66,0,0,1,135.55,19.46Zm5.58-.71a2.36,2.36,0,0,0,1-2,2.41,2.41,0,0,0-.92-2,4,4,0,0,0-2.52-.72,3.6,3.6,0,0,0-2.35.71,2.46,2.46,0,0,0-.86,2,2.48,2.48,0,0,0,.84,2,3.49,3.49,0,0,0,2.31.71A4,4,0,0,0,141.13,18.75Z"/>
            <path class="cls-1" d="M148,20a3.7,3.7,0,0,1-1.54-1.29,3.29,3.29,0,0,1-.55-1.88V12.71a3.35,3.35,0,0,1,.55-1.89A3.76,3.76,0,0,1,148,9.52a5.29,5.29,0,0,1,2.23-.46,5.19,5.19,0,0,1,2.95.77,2.34,2.34,0,0,1,1.15,2,.92.92,0,0,1-.22.62.75.75,0,0,1-.58.24,2.4,2.4,0,0,0-.92-2,3.76,3.76,0,0,0-2.4-.74,3.57,3.57,0,0,0-2.37.76,2.41,2.41,0,0,0-.93,2v4.14a2.36,2.36,0,0,0,.94,1.94,3.71,3.71,0,0,0,2.41.74,3.79,3.79,0,0,0,2.43-.74,2.38,2.38,0,0,0,.93-1.94.72.72,0,0,1,.56.23.89.89,0,0,1,.21.61,2.31,2.31,0,0,1-1.15,2,5.27,5.27,0,0,1-3,.77A5.44,5.44,0,0,1,148,20Z"/>
            <path class="cls-1" d="M165.92,20.3a1.22,1.22,0,0,1-.59.16,1,1,0,0,1-.45-.09.92.92,0,0,1-.36-.33l-4-6-2.2,2.18v3.15c0,.73-.33,1.1-1,1.1V5.72a1.06,1.06,0,0,1,.27-.78.94.94,0,0,1,.74-.28V15.05l6-5.94a1.15,1.15,0,0,1,.19.26.52.52,0,0,1,.08.24.78.78,0,0,1-.13.43,3.84,3.84,0,0,1-.47.5l-2.81,2.79Z"/>
        </g>
        <g id="Icon">
            <rect class="cls-1" x="4.55" y="4.55" width="22.73" height="4.55"/>
            <rect class="cls-1" x="4.55" y="10.23" width="22.73" height="4.55"/>
            <rect class="cls-1" x="4.55" y="15.91" width="22.73" height="4.55"/>
            <polyline class="cls-2" points="0 0 0 25 11.36 25 11.36 22.73 3.41 22.73 2.27 22.73 2.27 2.27 11.36 2.27 11.36 0"/>
            <polyline class="cls-2" points="31.82 25 31.82 0 20.45 0 20.45 2.27 28.41 2.27 29.55 2.27 29.55 22.73 20.45 22.73 20.45 25"/>
        </g>
    </g>
</svg>